<svg width="451" height="86" viewBox="0 0 451 86" fill="none" xmlns="http://www.w3.org/2000/svg">
<path d="M303.941 20.3221C304.692 20.3221 305.388 20.608 306.031 21.1757C306.682 21.7353 307.01 22.444 307.01 23.3016C307.01 23.5714 306.964 23.8774 306.877 24.2196L297.572 50.8096C297.381 51.325 297.049 51.7397 296.577 52.0498C296.1 52.3517 295.581 52.5168 295.017 52.549C294.453 52.549 293.914 52.4 293.408 52.0981C292.911 51.788 292.517 51.3411 292.231 50.7613L285.53 35.9443L278.779 50.7613C278.489 51.3411 278.091 51.788 277.585 52.0981C277.087 52.4 276.556 52.549 275.992 52.549C275.416 52.5168 274.889 52.3517 274.417 52.0498C273.952 51.7397 273.625 51.325 273.438 50.8096L264.133 24.2196C264.041 23.8774 264 23.5714 264 23.3016C264 22.444 264.319 21.7353 264.962 21.1757C265.601 20.608 266.314 20.3221 267.102 20.3221C267.732 20.3221 268.296 20.4831 268.794 20.8052C269.299 21.1193 269.656 21.5541 269.855 22.1098L276.888 42.8214L283.025 28.5197C283.278 27.9722 283.639 27.5373 284.103 27.2152C284.576 26.8931 285.115 26.7481 285.712 26.7804C286.309 26.7481 286.832 26.8931 287.288 27.2152C287.752 27.5373 288.109 27.9722 288.366 28.5197L294.171 42.6925L301.154 22.1098C301.341 21.5541 301.694 21.1193 302.216 20.8052C302.734 20.4831 303.311 20.3221 303.941 20.3221Z" fill="black"/>
<path d="M344.307 36.5081C344.307 39.5278 343.61 42.298 342.217 44.8184C340.832 47.343 338.92 49.34 336.478 50.8097C334.044 52.2712 331.303 53 328.251 53C325.199 53 322.449 52.2712 320.007 50.8097C317.573 49.34 315.67 47.343 314.301 44.8184C312.929 42.298 312.244 39.5278 312.244 36.5081C312.244 33.4802 312.929 30.7061 314.301 28.1816C315.67 25.6611 317.573 23.668 320.007 22.2064C322.449 20.7368 325.199 20 328.251 20C331.303 20 334.044 20.7368 336.478 22.2064C338.92 23.668 340.832 25.6611 342.217 28.1816C343.61 30.7061 344.307 33.4802 344.307 36.5081ZM338.17 36.5081C338.17 34.4586 337.742 32.6025 336.892 30.9356C336.038 29.2606 334.856 27.9359 333.343 26.9575C331.838 25.9832 330.142 25.4919 328.251 25.4919C326.327 25.4919 324.618 25.9751 323.125 26.9414C321.632 27.9078 320.463 29.2365 319.625 30.9195C318.796 32.5944 318.381 34.4586 318.381 36.5081C318.381 38.5494 318.796 40.4136 319.625 42.0966C320.463 43.7716 321.632 45.0922 323.125 46.0586C324.618 47.0249 326.327 47.5081 328.251 47.5081C330.142 47.5081 331.838 47.0209 333.343 46.0425C334.856 45.0681 336.038 43.7474 336.892 42.0805C337.742 40.4056 338.17 38.5494 338.17 36.5081Z" fill="black"/>
<path d="M382.736 36.5081C382.736 39.5278 382.04 42.298 380.646 44.8184C379.261 47.343 377.35 49.34 374.907 50.8097C372.473 52.2712 369.732 53 366.68 53C363.628 53 360.879 52.2712 358.437 50.8097C356.003 49.34 354.099 47.343 352.731 44.8184C351.358 42.298 350.674 39.5278 350.674 36.5081C350.674 33.4802 351.358 30.7061 352.731 28.1816C354.099 25.6611 356.003 23.668 358.437 22.2064C360.879 20.7368 363.628 20 366.68 20C369.732 20 372.473 20.7368 374.907 22.2064C377.35 23.668 379.261 25.6611 380.646 28.1816C382.04 30.7061 382.736 33.4802 382.736 36.5081ZM376.599 36.5081C376.599 34.4586 376.172 32.6025 375.322 30.9356C374.468 29.2606 373.286 27.9359 371.773 26.9575C370.267 25.9832 368.571 25.4919 366.68 25.4919C364.756 25.4919 363.048 25.9751 361.555 26.9414C360.062 27.9078 358.893 29.2365 358.055 30.9195C357.226 32.5944 356.811 34.4586 356.811 36.5081C356.811 38.5494 357.226 40.4136 358.055 42.0966C358.893 43.7716 360.062 45.0922 361.555 46.0586C363.048 47.0249 364.756 47.5081 366.68 47.5081C368.571 47.5081 370.267 47.0209 371.773 46.0425C373.286 45.0681 374.468 43.7474 375.322 42.0805C376.172 40.4056 376.599 38.5494 376.599 36.5081Z" fill="black"/>
<path d="M404.928 20.4509C407.88 20.4509 410.418 21.1676 412.541 22.5929C414.672 24.0102 416.298 25.9388 417.418 28.3747C418.533 30.8026 419.093 33.5124 419.093 36.508C419.093 39.5036 418.533 42.2173 417.418 44.6412C416.298 47.0691 414.672 48.9977 412.541 50.4231C410.418 51.8403 407.88 52.549 404.928 52.549H393.632C392.811 52.549 392.127 52.2832 391.575 51.7437C391.032 51.2082 390.763 50.5438 390.763 49.7466V23.2532C390.763 22.46 391.032 21.7957 391.575 21.2561C392.127 20.7206 392.811 20.4509 393.632 20.4509H404.928ZM404.447 47.2825C407.275 47.2825 409.398 46.2679 410.816 44.2386C412.243 42.2012 412.956 39.6244 412.956 36.508C412.956 33.3835 412.234 30.8067 410.799 28.7774C409.373 26.7481 407.254 25.7334 404.447 25.7334H396.651V47.2825H404.447Z" fill="black"/>
<path d="M451 23.1566C451 23.7686 450.826 24.3323 450.486 24.8477L440.617 38.5695V49.7467C440.617 50.5439 440.343 51.2082 439.804 51.7438C439.273 52.2833 438.63 52.549 437.88 52.549C437.084 52.549 436.408 52.2833 435.856 51.7438C435.313 51.2082 435.043 50.5439 435.043 49.7467V37.9253L425.224 25.2664C424.648 24.5377 424.362 23.817 424.362 23.1083C424.362 22.3151 424.681 21.6548 425.324 21.1274C425.975 20.5918 426.667 20.3221 427.397 20.3221C428.268 20.3221 429.039 20.7489 429.703 21.5944L438.013 32.7394L445.808 21.691C446.472 20.7811 447.256 20.3221 448.164 20.3221C448.927 20.3221 449.59 20.5959 450.154 21.1435C450.718 21.691 451 22.3634 451 23.1566Z" fill="black"/>
<path d="M303.941 20.3221C304.692 20.3221 305.388 20.608 306.031 21.1757C306.682 21.7353 307.01 22.444 307.01 23.3016C307.01 23.5714 306.964 23.8774 306.877 24.2196L297.572 50.8096C297.381 51.325 297.049 51.7397 296.577 52.0498C296.1 52.3517 295.581 52.5168 295.017 52.549C294.453 52.549 293.914 52.4 293.408 52.0981C292.911 51.788 292.517 51.3411 292.231 50.7613L285.53 35.9443L278.779 50.7613C278.489 51.3411 278.091 51.788 277.585 52.0981C277.087 52.4 276.556 52.549 275.992 52.549C275.416 52.5168 274.889 52.3517 274.417 52.0498C273.952 51.7397 273.625 51.325 273.438 50.8096L264.133 24.2196C264.041 23.8774 264 23.5714 264 23.3016C264 22.444 264.319 21.7353 264.962 21.1757C265.601 20.608 266.314 20.3221 267.102 20.3221C267.732 20.3221 268.296 20.4831 268.794 20.8052C269.299 21.1193 269.656 21.5541 269.855 22.1098L276.888 42.8214L283.025 28.5197C283.278 27.9722 283.639 27.5373 284.103 27.2152C284.576 26.8931 285.115 26.7481 285.712 26.7804C286.309 26.7481 286.832 26.8931 287.288 27.2152C287.752 27.5373 288.109 27.9722 288.366 28.5197L294.171 42.6925L301.154 22.1098C301.341 21.5541 301.694 21.1193 302.216 20.8052C302.734 20.4831 303.311 20.3221 303.941 20.3221Z" fill="black"/>
<path d="M344.307 36.5081C344.307 39.5278 343.61 42.298 342.217 44.8184C340.832 47.343 338.92 49.34 336.478 50.8097C334.044 52.2712 331.303 53 328.251 53C325.199 53 322.449 52.2712 320.007 50.8097C317.573 49.34 315.67 47.343 314.301 44.8184C312.929 42.298 312.244 39.5278 312.244 36.5081C312.244 33.4802 312.929 30.7061 314.301 28.1816C315.67 25.6611 317.573 23.668 320.007 22.2064C322.449 20.7368 325.199 20 328.251 20C331.303 20 334.044 20.7368 336.478 22.2064C338.92 23.668 340.832 25.6611 342.217 28.1816C343.61 30.7061 344.307 33.4802 344.307 36.5081ZM338.17 36.5081C338.17 34.4586 337.742 32.6025 336.892 30.9356C336.038 29.2606 334.856 27.9359 333.343 26.9575C331.838 25.9832 330.142 25.4919 328.251 25.4919C326.327 25.4919 324.618 25.9751 323.125 26.9414C321.632 27.9078 320.463 29.2365 319.625 30.9195C318.796 32.5944 318.381 34.4586 318.381 36.5081C318.381 38.5494 318.796 40.4136 319.625 42.0966C320.463 43.7716 321.632 45.0922 323.125 46.0586C324.618 47.0249 326.327 47.5081 328.251 47.5081C330.142 47.5081 331.838 47.0209 333.343 46.0425C334.856 45.0681 336.038 43.7474 336.892 42.0805C337.742 40.4056 338.17 38.5494 338.17 36.5081Z" fill="black"/>
<path d="M382.736 36.5081C382.736 39.5278 382.04 42.298 380.646 44.8184C379.261 47.343 377.35 49.34 374.907 50.8097C372.473 52.2712 369.732 53 366.68 53C363.628 53 360.879 52.2712 358.437 50.8097C356.003 49.34 354.099 47.343 352.731 44.8184C351.358 42.298 350.674 39.5278 350.674 36.5081C350.674 33.4802 351.358 30.7061 352.731 28.1816C354.099 25.6611 356.003 23.668 358.437 22.2064C360.879 20.7368 363.628 20 366.68 20C369.732 20 372.473 20.7368 374.907 22.2064C377.35 23.668 379.261 25.6611 380.646 28.1816C382.04 30.7061 382.736 33.4802 382.736 36.5081ZM376.599 36.5081C376.599 34.4586 376.172 32.6025 375.322 30.9356C374.468 29.2606 373.286 27.9359 371.773 26.9575C370.267 25.9832 368.571 25.4919 366.68 25.4919C364.756 25.4919 363.048 25.9751 361.555 26.9414C360.062 27.9078 358.893 29.2365 358.055 30.9195C357.226 32.5944 356.811 34.4586 356.811 36.5081C356.811 38.5494 357.226 40.4136 358.055 42.0966C358.893 43.7716 360.062 45.0922 361.555 46.0586C363.048 47.0249 364.756 47.5081 366.68 47.5081C368.571 47.5081 370.267 47.0209 371.773 46.0425C373.286 45.0681 374.468 43.7474 375.322 42.0805C376.172 40.4056 376.599 38.5494 376.599 36.5081Z" fill="black"/>
<path d="M404.928 20.4509C407.88 20.4509 410.418 21.1676 412.541 22.5929C414.672 24.0102 416.298 25.9388 417.418 28.3747C418.533 30.8026 419.093 33.5124 419.093 36.508C419.093 39.5036 418.533 42.2173 417.418 44.6412C416.298 47.0691 414.672 48.9977 412.541 50.4231C410.418 51.8403 407.88 52.549 404.928 52.549H393.632C392.811 52.549 392.127 52.2832 391.575 51.7437C391.032 51.2082 390.763 50.5438 390.763 49.7466V23.2532C390.763 22.46 391.032 21.7957 391.575 21.2561C392.127 20.7206 392.811 20.4509 393.632 20.4509H404.928ZM404.447 47.2825C407.275 47.2825 409.398 46.2679 410.816 44.2386C412.243 42.2012 412.956 39.6244 412.956 36.508C412.956 33.3835 412.234 30.8067 410.799 28.7774C409.373 26.7481 407.254 25.7334 404.447 25.7334H396.651V47.2825H404.447Z" fill="black"/>
<path d="M451 23.1566C451 23.7686 450.826 24.3323 450.486 24.8477L440.617 38.5695V49.7467C440.617 50.5439 440.343 51.2082 439.804 51.7438C439.273 52.2833 438.63 52.549 437.88 52.549C437.084 52.549 436.408 52.2833 435.856 51.7438C435.313 51.2082 435.043 50.5439 435.043 49.7467V37.9253L425.224 25.2664C424.648 24.5377 424.362 23.817 424.362 23.1083C424.362 22.3151 424.681 21.6548 425.324 21.1274C425.975 20.5918 426.667 20.3221 427.397 20.3221C428.268 20.3221 429.039 20.7489 429.703 21.5944L438.013 32.7394L445.808 21.691C446.472 20.7811 447.256 20.3221 448.164 20.3221C448.927 20.3221 449.59 20.5959 450.154 21.1435C450.718 21.691 451 22.3634 451 23.1566Z" fill="black"/>
<path d="M284 73.8333V62H291.771V63.0417H285.167V67.375H290.729V68.3542H285.167V73.8333H284Z" fill="black"/>
<path d="M304.609 72.875C305.343 72.875 305.953 72.7396 306.442 72.4583C306.942 72.1667 307.338 71.7917 307.63 71.3333C307.932 70.8646 308.14 70.3333 308.255 69.75C308.38 69.1667 308.442 68.5729 308.442 67.9583V62H309.609V67.9583C309.609 68.7656 309.515 69.5313 309.338 70.25C309.156 70.9583 308.864 71.5937 308.463 72.1458C308.073 72.6875 307.557 73.1198 306.922 73.4375C306.297 73.7604 305.526 73.9167 304.609 73.9167C303.677 73.9167 302.89 73.75 302.255 73.4167C301.614 73.0729 301.099 72.6198 300.713 72.0625C300.323 71.5104 300.047 70.875 299.88 70.1667C299.713 69.4583 299.63 68.724 299.63 67.9583V62H300.776V67.9583C300.776 68.5833 300.838 69.1979 300.963 69.7917C301.088 70.375 301.297 70.8958 301.588 71.3542C301.88 71.8125 302.265 72.1823 302.755 72.4583C303.255 72.7396 303.869 72.875 304.609 72.875Z" fill="black"/>
<path d="M318.358 73.8333V62H323.358C323.869 62 324.343 62.1146 324.775 62.3333C325.202 62.5417 325.572 62.8281 325.879 63.1875C326.181 63.5365 326.421 63.9323 326.587 64.375C326.765 64.8229 326.858 65.2656 326.858 65.7083C326.858 66.1563 326.796 66.5729 326.671 66.9583C326.546 67.349 326.363 67.7031 326.129 68.0208C325.905 68.3437 325.634 68.6146 325.317 68.8333C324.994 69.0417 324.634 69.1875 324.233 69.2708L327.129 73.8333H325.817L323.025 69.4583H319.525V73.8333H318.358ZM319.525 68.4375H323.4C323.744 68.4375 324.056 68.3646 324.337 68.2083C324.613 68.0573 324.848 67.8542 325.046 67.6042C325.254 67.3437 325.41 67.0521 325.525 66.7292C325.634 66.4115 325.692 66.0729 325.692 65.7083C325.692 65.3646 325.629 65.0313 325.504 64.7083C325.379 64.375 325.202 64.0833 324.983 63.8333C324.775 63.5833 324.515 63.3906 324.212 63.25C323.921 63.1146 323.613 63.0417 323.296 63.0417H319.525V68.4375Z" fill="black"/>
<path d="M336.388 64.1667V73.8333H335.221V62H336.117L343.95 71.8542V62.0208H345.117V73.8333H344.117L336.388 64.1667Z" fill="black"/>
<path d="M354.066 73.8333V62H355.232V73.8333H354.066Z" fill="black"/>
<path d="M372.578 63.0417H368.37V73.8333H367.203V63.0417H362.995V62H372.578V63.0417Z" fill="black"/>
<path d="M385.141 72.875C385.876 72.875 386.485 72.7396 386.975 72.4583C387.475 72.1667 387.87 71.7917 388.162 71.3333C388.464 70.8646 388.673 70.3333 388.787 69.75C388.912 69.1667 388.975 68.5729 388.975 67.9583V62H390.141V67.9583C390.141 68.7656 390.048 69.5313 389.87 70.25C389.688 70.9583 389.396 71.5937 388.995 72.1458C388.605 72.6875 388.089 73.1198 387.454 73.4375C386.829 73.7604 386.058 73.9167 385.141 73.9167C384.209 73.9167 383.423 73.75 382.787 73.4167C382.146 73.0729 381.631 72.6198 381.245 72.0625C380.855 71.5104 380.579 70.875 380.412 70.1667C380.245 69.4583 380.162 68.724 380.162 67.9583V62H381.308V67.9583C381.308 68.5833 381.37 69.1979 381.495 69.7917C381.62 70.375 381.829 70.8958 382.12 71.3542C382.412 71.8125 382.798 72.1823 383.287 72.4583C383.787 72.7396 384.402 72.875 385.141 72.875Z" fill="black"/>
<path d="M398.891 73.8333V62H403.891C404.401 62 404.875 62.1146 405.307 62.3333C405.734 62.5417 406.104 62.8281 406.411 63.1875C406.713 63.5365 406.953 63.9323 407.12 64.375C407.297 64.8229 407.391 65.2656 407.391 65.7083C407.391 66.1563 407.328 66.5729 407.203 66.9583C407.078 67.349 406.896 67.7031 406.661 68.0208C406.437 68.3437 406.167 68.6146 405.849 68.8333C405.526 69.0417 405.167 69.1875 404.766 69.2708L407.661 73.8333H406.349L403.557 69.4583H400.057V73.8333H398.891ZM400.057 68.4375H403.932C404.276 68.4375 404.588 68.3646 404.87 68.2083C405.146 68.0573 405.38 67.8542 405.578 67.6042C405.786 67.3437 405.943 67.0521 406.057 66.7292C406.167 66.4115 406.224 66.0729 406.224 65.7083C406.224 65.3646 406.161 65.0313 406.036 64.7083C405.911 64.375 405.734 64.0833 405.516 63.8333C405.307 63.5833 405.047 63.3906 404.745 63.25C404.453 63.1146 404.146 63.0417 403.828 63.0417H400.057V68.4375Z" fill="black"/>
<path d="M423.712 72.7917V73.8333H415.753V62H423.566V63.0417H416.92V67.2917H422.712V68.2917H416.92V72.7917H423.712Z" fill="black"/>
<path d="M284 73.8333V62H291.771V63.0417H285.167V67.375H290.729V68.3542H285.167V73.8333H284Z" fill="black"/>
<path d="M304.609 72.875C305.343 72.875 305.953 72.7396 306.442 72.4583C306.942 72.1667 307.338 71.7917 307.63 71.3333C307.932 70.8646 308.14 70.3333 308.255 69.75C308.38 69.1667 308.442 68.5729 308.442 67.9583V62H309.609V67.9583C309.609 68.7656 309.515 69.5313 309.338 70.25C309.156 70.9583 308.864 71.5937 308.463 72.1458C308.073 72.6875 307.557 73.1198 306.922 73.4375C306.297 73.7604 305.526 73.9167 304.609 73.9167C303.677 73.9167 302.89 73.75 302.255 73.4167C301.614 73.0729 301.099 72.6198 300.713 72.0625C300.323 71.5104 300.047 70.875 299.88 70.1667C299.713 69.4583 299.63 68.724 299.63 67.9583V62H300.776V67.9583C300.776 68.5833 300.838 69.1979 300.963 69.7917C301.088 70.375 301.297 70.8958 301.588 71.3542C301.88 71.8125 302.265 72.1823 302.755 72.4583C303.255 72.7396 303.869 72.875 304.609 72.875Z" fill="black"/>
<path d="M318.358 73.8333V62H323.358C323.869 62 324.343 62.1146 324.775 62.3333C325.202 62.5417 325.572 62.8281 325.879 63.1875C326.181 63.5365 326.421 63.9323 326.587 64.375C326.765 64.8229 326.858 65.2656 326.858 65.7083C326.858 66.1563 326.796 66.5729 326.671 66.9583C326.546 67.349 326.363 67.7031 326.129 68.0208C325.905 68.3437 325.634 68.6146 325.317 68.8333C324.994 69.0417 324.634 69.1875 324.233 69.2708L327.129 73.8333H325.817L323.025 69.4583H319.525V73.8333H318.358ZM319.525 68.4375H323.4C323.744 68.4375 324.056 68.3646 324.337 68.2083C324.613 68.0573 324.848 67.8542 325.046 67.6042C325.254 67.3437 325.41 67.0521 325.525 66.7292C325.634 66.4115 325.692 66.0729 325.692 65.7083C325.692 65.3646 325.629 65.0313 325.504 64.7083C325.379 64.375 325.202 64.0833 324.983 63.8333C324.775 63.5833 324.515 63.3906 324.212 63.25C323.921 63.1146 323.613 63.0417 323.296 63.0417H319.525V68.4375Z" fill="black"/>
<path d="M336.388 64.1667V73.8333H335.221V62H336.117L343.95 71.8542V62.0208H345.117V73.8333H344.117L336.388 64.1667Z" fill="black"/>
<path d="M354.066 73.8333V62H355.232V73.8333H354.066Z" fill="black"/>
<path d="M372.578 63.0417H368.37V73.8333H367.203V63.0417H362.995V62H372.578V63.0417Z" fill="black"/>
<path d="M385.141 72.875C385.876 72.875 386.485 72.7396 386.975 72.4583C387.475 72.1667 387.87 71.7917 388.162 71.3333C388.464 70.8646 388.673 70.3333 388.787 69.75C388.912 69.1667 388.975 68.5729 388.975 67.9583V62H390.141V67.9583C390.141 68.7656 390.048 69.5313 389.87 70.25C389.688 70.9583 389.396 71.5937 388.995 72.1458C388.605 72.6875 388.089 73.1198 387.454 73.4375C386.829 73.7604 386.058 73.9167 385.141 73.9167C384.209 73.9167 383.423 73.75 382.787 73.4167C382.146 73.0729 381.631 72.6198 381.245 72.0625C380.855 71.5104 380.579 70.875 380.412 70.1667C380.245 69.4583 380.162 68.724 380.162 67.9583V62H381.308V67.9583C381.308 68.5833 381.37 69.1979 381.495 69.7917C381.62 70.375 381.829 70.8958 382.12 71.3542C382.412 71.8125 382.798 72.1823 383.287 72.4583C383.787 72.7396 384.402 72.875 385.141 72.875Z" fill="black"/>
<path d="M398.891 73.8333V62H403.891C404.401 62 404.875 62.1146 405.307 62.3333C405.734 62.5417 406.104 62.8281 406.411 63.1875C406.713 63.5365 406.953 63.9323 407.12 64.375C407.297 64.8229 407.391 65.2656 407.391 65.7083C407.391 66.1563 407.328 66.5729 407.203 66.9583C407.078 67.349 406.896 67.7031 406.661 68.0208C406.437 68.3437 406.167 68.6146 405.849 68.8333C405.526 69.0417 405.167 69.1875 404.766 69.2708L407.661 73.8333H406.349L403.557 69.4583H400.057V73.8333H398.891ZM400.057 68.4375H403.932C404.276 68.4375 404.588 68.3646 404.87 68.2083C405.146 68.0573 405.38 67.8542 405.578 67.6042C405.786 67.3437 405.943 67.0521 406.057 66.7292C406.167 66.4115 406.224 66.0729 406.224 65.7083C406.224 65.3646 406.161 65.0313 406.036 64.7083C405.911 64.375 405.734 64.0833 405.516 63.8333C405.307 63.5833 405.047 63.3906 404.745 63.25C404.453 63.1146 404.146 63.0417 403.828 63.0417H400.057V68.4375Z" fill="black"/>
<path d="M423.712 72.7917V73.8333H415.753V62H423.566V63.0417H416.92V67.2917H422.712V68.2917H416.92V72.7917H423.712Z" fill="black"/>
<mask id="mask0_128_272" style="mask-type:luminance" maskUnits="userSpaceOnUse" x="0" y="0" width="318" height="86">
<path d="M0 0H318V86H0V0Z" fill="white"/>
</mask>
<g mask="url(#mask0_128_272)">
<path d="M0.669067 84.9674C20.0951 84.9344 39.5212 84.9014 50.0602 85.0523C60.5992 85.1985 62.2511 85.5285 62.8261 83.3078C63.4012 81.0871 62.9046 76.3109 62.8105 73.1047C62.7111 69.8986 63.0248 68.2578 62.4393 67.362C61.859 66.4661 60.3796 66.3058 59.585 66.584C58.7956 66.8669 58.6911 67.5883 58.8217 69.5968C58.9524 71.6007 59.3131 74.8917 59.4804 77.7348C59.6529 80.5731 59.6268 82.9683 60.0293 84.2225C60.4266 85.4766 61.2578 85.5945 61.8277 85.321C62.4027 85.0429 62.7111 84.3781 62.9046 81.6293C63.1032 78.8805 63.1816 74.0524 63.2966 71.2046C63.4116 68.3568 63.5685 67.494 64.6192 67.0744C65.6752 66.6547 67.6252 66.683 68.655 66.6877C69.6849 66.6925 69.7999 66.683 69.8103 67.7297C69.8208 68.7764 69.7319 70.8887 69.6587 72.9727C69.5855 75.0567 69.5385 77.1077 69.1098 78.1685C68.6811 79.2294 67.8761 79.3001 67.3324 79.2435C66.7835 79.187 66.5012 78.9984 66.2137 77.5509C65.9314 76.1034 65.6439 73.3971 65.3929 71.4969C65.142 69.5921 64.9224 68.4888 65.0531 67.7863C65.1838 67.0885 65.6595 66.7915 67.0397 66.7585C68.4198 66.7255 70.7043 66.9612 71.87 65.8626C73.041 64.7688 73.0933 62.3406 72.8842 56.0415C72.6751 49.7424 72.2098 39.5723 70.9134 31.8257C69.6117 24.0839 67.484 18.7654 64.5565 15.2151C61.6238 11.6695 57.886 9.89669 55.2669 10.6464C52.6426 11.3913 51.1423 14.6588 50.907 24.2677C50.6718 33.8814 51.7121 49.8367 51.9944 57.9793C52.2819 66.1219 51.8167 66.4473 60.5051 66.5887C69.1987 66.7255 87.0512 66.683 103.811 66.683C120.571 66.683 136.244 66.7255 144.388 66.5416C152.538 66.353 153.16 65.9334 153.469 63.6466C153.782 61.3599 153.783 57.2108 153.756 52.9391C153.73 48.6721 153.678 44.2872 152.559 41.8826C151.446 39.478 149.266 39.0584 143.223 38.8745C137.174 38.6859 127.268 38.7331 117.847 38.8981C108.427 39.0584 99.5035 39.3413 94.3124 39.478C89.1266 39.6195 87.6733 39.6195 87.3335 38.2427C86.9989 36.866 87.7778 34.1125 87.804 30.2415C87.8301 26.3706 87.1035 21.3775 86.0109 16.8983C84.9235 12.4192 83.4702 8.45394 83.1827 6.09648C82.9004 3.73903 83.7787 2.99408 85.7495 2.99408C87.7256 2.99408 90.7838 3.73904 95.4573 3.88048C100.126 4.01722 106.404 3.55043 112.087 3.0648C117.769 2.57445 122.856 2.06052 125.527 2.8762C128.198 3.69188 128.46 5.83717 127.937 8.28892C127.419 10.736 126.123 13.4895 126.489 17.945C126.85 22.4006 128.873 28.563 130.352 32.2453C131.831 35.9324 132.767 37.1441 131.314 37.7524C129.861 38.3606 126.018 38.3606 122.286 37.9174C118.548 37.4742 114.915 36.5878 111.93 36.1682C108.95 35.7485 106.613 35.7957 103.733 36.2153C100.852 36.6349 97.4281 37.427 94.1086 38.0777C90.7838 38.7331 87.5687 39.247 84.7928 39.5487C82.017 39.8505 79.6802 39.9448 77.9707 40.4116C76.256 40.8783 75.1635 41.7176 75.1164 41.8826C75.0641 42.0429 76.0469 41.5337 76.9304 40.4116C77.8139 39.2941 78.5928 37.5638 78.4621 34.5085C78.3314 31.4532 77.2964 27.0684 75.7908 22.6128C74.2852 18.1572 72.3144 13.6309 70.2338 10.8302C68.1584 8.02959 65.9837 6.95932 64.3735 6.7C62.7634 6.44539 61.7283 7.00646 59.8046 7.84571C57.886 8.68497 55.084 9.8024 55.0317 9.82598C54.9794 9.84955 57.6769 8.77926 59.7784 8.05317C61.8799 7.33179 63.3855 6.95931 66.9403 6.95931C70.4951 6.95931 76.0992 7.33179 88.3738 7.54396C100.643 7.75141 119.583 7.79857 140.29 7.49681C160.997 7.19034 183.465 6.53968 197.449 6.44538C211.433 6.35109 216.933 6.81786 220.127 6.23321C223.316 5.65328 224.199 4.01721 223.964 2.99408C223.729 1.96623 222.38 1.5466 219.071 1.59846C215.757 1.64561 210.482 2.16896 204.93 2.16896C199.378 2.16896 193.549 1.64561 189.127 1.17884C184.709 0.707348 181.698 0.287721 180.193 0.938378C178.687 1.59375 178.687 3.3194 178.766 6.16721C178.844 9.01029 179.001 12.9755 179.027 16.5919C179.053 20.2082 178.949 23.4756 178.609 26.4366C178.274 29.4023 177.704 32.0615 177.161 34.2303C176.612 36.3992 176.094 38.0777 177.26 38.7331C178.431 39.3837 181.285 39.0112 184.5 38.6623C187.721 38.3134 191.296 37.9881 194.93 37.8231C198.563 37.6581 202.248 37.6581 205.568 37.6109C208.893 37.5638 211.846 37.4742 214.183 37.6816C216.52 37.8938 218.229 38.4077 219.296 38.1956C220.357 37.9881 220.775 37.0546 220.514 34.9046C220.252 32.7593 219.317 29.4023 219.379 26.4885C219.442 23.5746 220.498 21.1135 220.963 18.3835C221.434 15.6536 221.308 12.6596 221.648 10.2975C221.988 7.93529 222.788 6.20021 223.619 5.59199C224.45 4.98848 225.313 5.50712 226.777 5.9739C228.246 6.44539 230.321 6.86502 232.757 7.07719C235.198 7.28464 238 7.28464 238.419 8.01073C238.832 8.73211 236.861 10.1796 234.994 12.9095C233.123 15.6395 231.361 19.6471 230.452 23.801C229.542 27.9548 229.49 32.2454 229.333 34.9753C229.181 37.7052 228.92 38.8745 225.961 39.3177C223.002 39.7609 217.351 39.478 212.547 38.5209C207.748 37.5638 203.806 35.9324 198.72 35.5835C193.633 35.2346 187.407 36.1682 182.556 36.9367C177.704 37.7052 174.228 38.3134 170.83 38.7566C167.427 39.1998 164.107 39.478 161.462 39.643C158.817 39.8033 156.841 39.8505 155.753 40.8076C154.666 41.7647 154.457 43.6318 154.405 46.8757C154.352 50.1196 154.457 54.7355 154.326 58.2339C154.195 61.7371 153.835 64.1134 155.753 65.2827C157.672 66.4473 161.875 66.4001 174.071 66.3058C186.267 66.2162 206.451 66.0748 218.099 66.0984C229.751 66.122 232.867 66.3058 234.367 63.2506C235.873 60.1953 235.768 53.8962 235.486 49.6528C235.198 45.4047 234.733 43.2122 233.98 41.859C233.227 40.5059 232.187 39.9919 231.1 39.5723C230.012 39.1527 228.868 38.8274 229.281 39.1055C229.699 39.3837 231.67 40.2701 232.94 41.0198C234.216 41.7647 234.785 42.373 235.381 40.3644C235.977 38.3606 236.599 33.74 237.77 29.1665C238.936 24.5931 240.646 20.0715 242.439 16.804C244.227 13.5366 246.098 11.5328 248.325 10.5049C250.557 9.47707 253.155 9.42992 253.725 8.98672C254.295 8.54352 252.842 7.70426 249.141 7.33179C245.434 6.95459 239.485 7.04418 239.506 7.41665C239.532 7.79385 245.539 8.44922 249.658 8.96315C253.777 9.47707 256.004 9.84955 256.836 11.976C257.667 14.0977 257.097 17.9686 256.705 27.4644C256.318 36.9603 256.114 52.0762 255.957 59.3796C255.801 66.683 255.696 66.1691 254.19 66.0748C252.685 65.9805 249.784 66.3058 247.834 66.3766C245.889 66.4473 244.901 66.2587 243.463 66.1927C242.02 66.122 240.128 66.1691 238.434 66.1927C236.74 66.2162 235.251 66.2162 235.266 66.1738C235.287 66.1314 236.819 66.0512 237.603 66.9612C238.387 67.8712 238.429 69.7713 238.44 71.8364C238.455 73.9015 238.44 76.127 238.894 77.2916C239.349 78.4514 240.269 78.5457 240.823 77.6546C241.372 76.7682 241.555 74.9058 241.717 72.7747C241.879 70.6483 242.02 68.2531 241.911 67.1404C241.801 66.0277 241.435 66.1927 241.712 66.3011C241.984 66.4143 242.888 66.4709 243.505 66.5039C244.122 66.5416 244.446 66.551 244.566 69.2244C244.681 71.893 244.587 77.2256 244.572 80.2714C244.551 83.3125 244.603 84.0716 245.152 84.4582C245.706 84.8401 246.757 84.8543 247.264 84.7883C247.771 84.727 247.729 84.5855 247.996 81.7707C248.262 78.9512 248.832 73.4583 249.041 70.4078C249.245 67.3573 249.088 66.749 248.832 67.1875C248.571 67.626 248.21 69.1065 247.781 72.2278C247.353 75.349 246.861 80.1064 246.642 82.5251C246.417 84.9486 246.469 85.0287 258.326 84.9957C270.182 84.958 293.842 84.8071 317.503 84.6562" stroke="black" stroke-width="1.86" stroke-miterlimit="22.926" stroke-linecap="round" stroke-linejoin="round"/>
</g>
<mask id="mask1_128_272" style="mask-type:luminance" maskUnits="userSpaceOnUse" x="0" y="0" width="318" height="86">
<path d="M0 0H318V86H0V0Z" fill="white"/>
</mask>
<g mask="url(#mask1_128_272)">
<path d="M0.669067 84.9674C20.0951 84.9344 39.5212 84.9014 50.0602 85.0523C60.5992 85.1985 62.2511 85.5285 62.8261 83.3078C63.4012 81.0871 62.9046 76.3109 62.8105 73.1047C62.7111 69.8986 63.0248 68.2578 62.4393 67.362C61.859 66.4661 60.3796 66.3058 59.585 66.584C58.7956 66.8669 58.6911 67.5883 58.8217 69.5968C58.9524 71.6007 59.3131 74.8917 59.4804 77.7348C59.6529 80.5731 59.6268 82.9683 60.0293 84.2225C60.4266 85.4766 61.2578 85.5945 61.8277 85.321C62.4027 85.0429 62.7111 84.3781 62.9046 81.6293C63.1032 78.8805 63.1816 74.0524 63.2966 71.2046C63.4116 68.3568 63.5685 67.494 64.6192 67.0744C65.6752 66.6547 67.6252 66.683 68.655 66.6877C69.6849 66.6925 69.7999 66.683 69.8103 67.7297C69.8208 68.7764 69.7319 70.8887 69.6587 72.9727C69.5855 75.0567 69.5385 77.1077 69.1098 78.1685C68.6811 79.2294 67.8761 79.3001 67.3324 79.2435C66.7835 79.187 66.5012 78.9984 66.2137 77.5509C65.9314 76.1034 65.6439 73.3971 65.3929 71.4969C65.142 69.5921 64.9224 68.4888 65.0531 67.7863C65.1838 67.0885 65.6595 66.7915 67.0397 66.7585C68.4198 66.7255 70.7043 66.9612 71.87 65.8626C73.041 64.7688 73.0933 62.3406 72.8842 56.0415C72.6751 49.7424 72.2098 39.5723 70.9134 31.8257C69.6117 24.0839 67.484 18.7654 64.5565 15.2151C61.6238 11.6695 57.886 9.89669 55.2669 10.6464C52.6426 11.3913 51.1423 14.6588 50.907 24.2677C50.6718 33.8814 51.7121 49.8367 51.9944 57.9793C52.2819 66.1219 51.8167 66.4473 60.5051 66.5887C69.1987 66.7255 87.0512 66.683 103.811 66.683C120.571 66.683 136.244 66.7255 144.388 66.5416C152.538 66.353 153.16 65.9334 153.469 63.6466C153.782 61.3599 153.783 57.2108 153.756 52.9391C153.73 48.6721 153.678 44.2872 152.559 41.8826C151.446 39.478 149.266 39.0584 143.223 38.8745C137.174 38.6859 127.268 38.7331 117.847 38.8981C108.427 39.0584 99.5035 39.3413 94.3124 39.478C89.1266 39.6195 87.6733 39.6195 87.3335 38.2427C86.9989 36.866 87.7778 34.1125 87.804 30.2415C87.8301 26.3706 87.1035 21.3775 86.0109 16.8983C84.9235 12.4192 83.4702 8.45394 83.1827 6.09648C82.9004 3.73903 83.7787 2.99408 85.7495 2.99408C87.7256 2.99408 90.7838 3.73904 95.4573 3.88048C100.126 4.01722 106.404 3.55043 112.087 3.0648C117.769 2.57445 122.856 2.06052 125.527 2.8762C128.198 3.69188 128.46 5.83717 127.937 8.28892C127.419 10.736 126.123 13.4895 126.489 17.945C126.85 22.4006 128.873 28.563 130.352 32.2453C131.831 35.9324 132.767 37.1441 131.314 37.7524C129.861 38.3606 126.018 38.3606 122.286 37.9174C118.548 37.4742 114.915 36.5878 111.93 36.1682C108.95 35.7485 106.613 35.7957 103.733 36.2153C100.852 36.6349 97.4281 37.427 94.1086 38.0777C90.7838 38.7331 87.5687 39.247 84.7928 39.5487C82.017 39.8505 79.6802 39.9448 77.9707 40.4116C76.256 40.8783 75.1635 41.7176 75.1164 41.8826C75.0641 42.0429 76.0469 41.5337 76.9304 40.4116C77.8139 39.2941 78.5928 37.5638 78.4621 34.5085C78.3314 31.4532 77.2964 27.0684 75.7908 22.6128C74.2852 18.1572 72.3144 13.6309 70.2338 10.8302C68.1584 8.02959 65.9837 6.95932 64.3735 6.7C62.7634 6.44539 61.7283 7.00646 59.8046 7.84571C57.886 8.68497 55.084 9.8024 55.0317 9.82598C54.9794 9.84955 57.6769 8.77926 59.7784 8.05317C61.8799 7.33179 63.3855 6.95931 66.9403 6.95931C70.4951 6.95931 76.0992 7.33179 88.3738 7.54396C100.643 7.75141 119.583 7.79857 140.29 7.49681C160.997 7.19034 183.465 6.53968 197.449 6.44538C211.433 6.35109 216.933 6.81786 220.127 6.23321C223.316 5.65328 224.199 4.01721 223.964 2.99408C223.729 1.96623 222.38 1.5466 219.071 1.59846C215.757 1.64561 210.482 2.16896 204.93 2.16896C199.378 2.16896 193.549 1.64561 189.127 1.17884C184.709 0.707348 181.698 0.287721 180.193 0.938378C178.687 1.59375 178.687 3.3194 178.766 6.16721C178.844 9.01029 179.001 12.9755 179.027 16.5919C179.053 20.2082 178.949 23.4756 178.609 26.4366C178.274 29.4023 177.704 32.0615 177.161 34.2303C176.612 36.3992 176.094 38.0777 177.26 38.7331C178.431 39.3837 181.285 39.0112 184.5 38.6623C187.721 38.3134 191.296 37.9881 194.93 37.8231C198.563 37.6581 202.248 37.6581 205.568 37.6109C208.893 37.5638 211.846 37.4742 214.183 37.6816C216.52 37.8938 218.229 38.4077 219.296 38.1956C220.357 37.9881 220.775 37.0546 220.514 34.9046C220.252 32.7593 219.317 29.4023 219.379 26.4885C219.442 23.5746 220.498 21.1135 220.963 18.3835C221.434 15.6536 221.308 12.6596 221.648 10.2975C221.988 7.93529 222.788 6.20021 223.619 5.59199C224.45 4.98848 225.313 5.50712 226.777 5.9739C228.246 6.44539 230.321 6.86502 232.757 7.07719C235.198 7.28464 238 7.28464 238.419 8.01073C238.832 8.73211 236.861 10.1796 234.994 12.9095C233.123 15.6395 231.361 19.6471 230.452 23.801C229.542 27.9548 229.49 32.2454 229.333 34.9753C229.181 37.7052 228.92 38.8745 225.961 39.3177C223.002 39.7609 217.351 39.478 212.547 38.5209C207.748 37.5638 203.806 35.9324 198.72 35.5835C193.633 35.2346 187.407 36.1682 182.556 36.9367C177.704 37.7052 174.228 38.3134 170.83 38.7566C167.427 39.1998 164.107 39.478 161.462 39.643C158.817 39.8033 156.841 39.8505 155.753 40.8076C154.666 41.7647 154.457 43.6318 154.405 46.8757C154.352 50.1196 154.457 54.7355 154.326 58.2339C154.195 61.7371 153.835 64.1134 155.753 65.2827C157.672 66.4473 161.875 66.4001 174.071 66.3058C186.267 66.2162 206.451 66.0748 218.099 66.0984C229.751 66.122 232.867 66.3058 234.367 63.2506C235.873 60.1953 235.768 53.8962 235.486 49.6528C235.198 45.4047 234.733 43.2122 233.98 41.859C233.227 40.5059 232.187 39.9919 231.1 39.5723C230.012 39.1527 228.868 38.8274 229.281 39.1055C229.699 39.3837 231.67 40.2701 232.94 41.0198C234.216 41.7647 234.785 42.373 235.381 40.3644C235.977 38.3606 236.599 33.74 237.77 29.1665C238.936 24.5931 240.646 20.0715 242.439 16.804C244.227 13.5366 246.098 11.5328 248.325 10.5049C250.557 9.47707 253.155 9.42992 253.725 8.98672C254.295 8.54352 252.842 7.70426 249.141 7.33179C245.434 6.95459 239.485 7.04418 239.506 7.41665C239.532 7.79385 245.539 8.44922 249.658 8.96315C253.777 9.47707 256.004 9.84955 256.836 11.976C257.667 14.0977 257.097 17.9686 256.705 27.4644C256.318 36.9603 256.114 52.0762 255.957 59.3796C255.801 66.683 255.696 66.1691 254.19 66.0748C252.685 65.9805 249.784 66.3058 247.834 66.3766C245.889 66.4473 244.901 66.2587 243.463 66.1927C242.02 66.122 240.128 66.1691 238.434 66.1927C236.74 66.2162 235.251 66.2162 235.266 66.1738C235.287 66.1314 236.819 66.0512 237.603 66.9612C238.387 67.8712 238.429 69.7713 238.44 71.8364C238.455 73.9015 238.44 76.127 238.894 77.2916C239.349 78.4514 240.269 78.5457 240.823 77.6546C241.372 76.7682 241.555 74.9058 241.717 72.7747C241.879 70.6483 242.02 68.2531 241.911 67.1404C241.801 66.0277 241.435 66.1927 241.712 66.3011C241.984 66.4143 242.888 66.4709 243.505 66.5039C244.122 66.5416 244.446 66.551 244.566 69.2244C244.681 71.893 244.587 77.2256 244.572 80.2714C244.551 83.3125 244.603 84.0716 245.152 84.4582C245.706 84.8401 246.757 84.8543 247.264 84.7883C247.771 84.727 247.729 84.5855 247.996 81.7707C248.262 78.9512 248.832 73.4583 249.041 70.4078C249.245 67.3573 249.088 66.749 248.832 67.1875C248.571 67.626 248.21 69.1065 247.781 72.2278C247.353 75.349 246.861 80.1064 246.642 82.5251C246.417 84.9486 246.469 85.0287 258.326 84.9957C270.182 84.958 293.842 84.8071 317.503 84.6562" stroke="black" stroke-width="1.86" stroke-miterlimit="22.926" stroke-linecap="round" stroke-linejoin="round"/>
</g>
</svg>
